<svg width="260" height="229" viewBox="0 0 260 229" fill="none" xmlns="http://www.w3.org/2000/svg" xmlns:xlink="http://www.w3.org/1999/xlink">
<rect x="52" y="44" width="156" height="156" fill="url(#pattern0)"/>
<path d="M164.534 18.2316C189.173 24.6821 218.915 15.8546 237.257 34.297C256.63 53.7767 262.272 85.454 259.223 113.439C256.189 141.283 239.362 164.688 220.85 184.873C202.88 204.468 181.296 220.377 155.96 226.04C130.629 231.701 103.239 229.674 80.75 216.186C59.3736 203.364 51.2095 177.1 37.9981 155.285C24.0318 132.224 -6.90273 111.051 1.39018 85.145C10.2263 57.542 50.8345 62.6483 73.1747 45.398C88.6502 33.4483 91.8073 6.55261 110.289 1.05693C128.916 -4.48193 145.749 13.3139 164.534 18.2316Z" fill="#FE5F55" fill-opacity="0.2"/>
<defs>
<pattern id="pattern0" patternContentUnits="objectBoundingBox" width="1" height="1">
<use xlink:href="#image0_303_5" transform="scale(0.000367647)"/>
</pattern>
</defs>
</svg>
